<svg width="88" height="27" viewBox="0 0 88 27" fill="none" xmlns="http://www.w3.org/2000/svg">
<path d="M7.07262 23.3886L0.107233 3.37713C-0.216237 2.43634 0.204274 1.78836 1.20433 1.78836H2.81629C3.58993 1.78836 4.13713 2.17877 4.36356 2.92436L9.5229 19.0453L14.6499 2.92165C14.8763 2.17606 15.4235 1.78564 16.1972 1.78564H17.8415C18.8092 1.78564 19.227 2.43363 18.9062 3.37442L11.9085 23.3859C11.6497 24.164 11.1349 24.4894 10.3612 24.4894H8.61988C7.84625 24.4894 7.36105 24.164 7.07262 23.3859V23.3886Z" fill="white"/>
<path d="M22.9033 23.1286V3.14961C22.9033 2.27388 23.3858 1.78857 24.2565 1.78857H25.8038C26.6744 1.78857 27.157 2.27388 27.157 3.14961V23.1286C27.157 24.0043 26.6744 24.4896 25.8038 24.4896H24.2565C23.3858 24.4896 22.9033 24.0043 22.9033 23.1286Z" fill="white"/>
<path d="M30.7393 22.9361L38.8664 12.4599L31.6423 3.34481C30.998 2.50162 31.3512 1.78857 32.3836 1.78857H34.5131C35.1573 1.78857 35.6102 1.98378 36.028 2.53416L41.4138 9.31221L46.7672 2.53416C47.1877 1.98378 47.6379 1.78857 48.2821 1.78857H50.4116C51.444 1.78857 51.7972 2.50162 51.1853 3.34481L43.9287 12.4599L52.0559 22.9361C52.6678 23.8118 52.347 24.4923 51.3146 24.4923H49.0584C48.4142 24.4923 47.9613 24.2971 47.5759 23.7467L41.4165 15.8327L35.2571 23.7467C34.8365 24.2971 34.3864 24.4923 33.7421 24.4923H31.4859C30.4535 24.4923 30.1004 23.8118 30.7446 22.9361H30.7393Z" fill="white"/>
<path d="M55.6006 23.1286V3.14961C55.6006 2.27388 56.0831 1.78857 56.9538 1.78857H58.501C59.3717 1.78857 59.8542 2.27388 59.8542 3.14961V23.1286C59.8542 24.0043 59.3717 24.4896 58.501 24.4896H56.9538C56.0831 24.4896 55.6006 24.0043 55.6006 23.1286Z" fill="white"/>
<path d="M86.2767 19.0617C85.937 18.0911 85.2416 17.3102 84.3224 16.8575C84.096 16.7463 83.8668 16.6595 83.6323 16.5972C84.4572 14.824 84.6809 12.7635 84.1229 10.7355C82.8802 6.21593 78.2142 3.55622 73.718 4.80609C73.284 4.92539 72.8689 5.07993 72.4726 5.26158C72.4618 5.22904 72.451 5.19651 72.4403 5.16668C72.1006 4.18251 71.4025 3.38541 70.4698 2.92722C70.273 2.83233 70.0708 2.75099 69.8633 2.69405C70.7555 2.15452 71.7394 1.72886 72.7907 1.43876C79.1442 -0.331667 85.7187 3.41524 87.4762 9.80558C88.3711 13.0563 87.8482 16.364 86.2767 19.0644V19.0617Z" fill="#37B8CB"/>
<path d="M80.9664 23.9091C80.3922 24.1775 79.7857 24.3998 79.1577 24.5733C72.8042 26.3437 66.2269 22.5968 64.4721 16.2065C63.6796 13.3326 64.0004 10.4099 65.1676 7.91016C65.5153 8.77232 66.1676 9.51249 67.0599 9.9517C67.3564 10.0981 67.6637 10.1984 67.971 10.2635C67.4373 11.8279 67.3537 13.563 67.8227 15.2738C69.0654 19.7934 73.7341 22.4531 78.2277 21.2033C78.4191 21.1517 78.6051 21.0921 78.7884 21.0243C78.9905 22.2227 79.748 23.3099 80.9152 23.8847C80.9314 23.8928 80.9502 23.9009 80.9664 23.9091Z" fill="#86C79C"/>
<path d="M71.0678 5.64088C70.8548 5.02272 70.4182 4.52386 69.8332 4.23647C69.4909 4.06837 69.127 3.98975 68.7685 3.98975C67.8654 3.98975 66.9948 4.49674 66.5743 5.36705C65.9839 6.58167 66.488 8.05115 67.6956 8.64491C68.9032 9.23867 70.3642 8.73167 70.9546 7.51704C71.2403 6.92871 71.2807 6.26446 71.0678 5.64359V5.64088Z" fill="#86C79C"/>
<path d="M84.9213 19.574C84.7084 18.9558 84.2717 18.457 83.6867 18.1696C83.3444 18.0015 82.9805 17.9229 82.622 17.9229C81.719 17.9229 80.8483 18.4298 80.4278 19.3002C79.8374 20.5148 80.3415 21.9843 81.5491 22.578C82.7568 23.1718 84.2178 22.6648 84.8081 21.4501C85.0938 20.8618 85.1343 20.1976 84.9213 19.5767V19.574Z" fill="#86C79C"/>
</svg>
